<svg xmlns="http://www.w3.org/2000/svg" xmlns:xlink="http://www.w3.org/1999/xlink" version="1.1" x="0px" y="0px" viewBox="0 0 100 125" style="enable-background:new 0 0 100 100;" xml:space="preserve"><style type="text/css">
	.st0{fill:none;stroke:#000000;stroke-width:2;stroke-linecap:round;stroke-linejoin:round;stroke-miterlimit:10;}
</style><path d="M49.388,71.488c-0.261-0.543-0.717-0.951-1.285-1.151c-0.57-0.2-1.181-0.167-1.723,0.095l-0.67,0.321l-3.869-8.057  l0.67-0.322c1.12-0.537,1.595-1.887,1.057-3.008l-1.6-3.331c-0.538-1.12-1.886-1.594-3.008-1.057l-7.339,3.523  c-1.12,0.538-1.595,1.888-1.057,3.008l1.6,3.331c0.261,0.543,0.717,0.952,1.285,1.151c0.568,0.2,1.18,0.165,1.723-0.095l0.67-0.321  l3.869,8.058l-0.67,0.321c-0.543,0.261-0.952,0.717-1.151,1.285c-0.2,0.568-0.166,1.181,0.095,1.723l1.599,3.331  c0.261,0.544,0.718,0.953,1.287,1.152c0.244,0.086,0.496,0.128,0.747,0.128c0.333,0,0.665-0.075,0.974-0.224l7.34-3.522  c1.119-0.539,1.593-1.889,1.056-3.009L49.388,71.488z M49.064,76.025l-7.341,3.523c-0.077,0.038-0.148,0.027-0.192,0.01  c-0.045-0.016-0.107-0.051-0.146-0.13l-1.599-3.331c-0.038-0.079-0.026-0.149-0.011-0.194c0.016-0.046,0.052-0.107,0.13-0.146  l1.571-0.754c0.239-0.114,0.423-0.319,0.511-0.57c0.088-0.25,0.073-0.524-0.042-0.764l-4.734-9.86  c-0.172-0.358-0.529-0.567-0.902-0.567c-0.145,0-0.292,0.031-0.432,0.099l-1.571,0.754c-0.125,0.06-0.278,0.008-0.34-0.119  l-1.6-3.331c-0.061-0.127-0.007-0.279,0.119-0.34l7.339-3.523c0.13-0.06,0.279-0.006,0.34,0.119l1.6,3.331  c0.038,0.079,0.026,0.149,0.011,0.195c-0.016,0.045-0.052,0.106-0.13,0.145l-1.571,0.755c-0.498,0.239-0.708,0.836-0.469,1.334  l4.734,9.86c0.114,0.239,0.319,0.423,0.57,0.511c0.251,0.09,0.526,0.072,0.764-0.042l1.571-0.755  c0.078-0.037,0.149-0.026,0.194-0.011c0.046,0.017,0.107,0.052,0.146,0.13l1.599,3.331C49.244,75.812,49.19,75.965,49.064,76.025z"/><path d="M66.295,44.539l-7.776-2.413c-0.572-0.179-1.185-0.122-1.718,0.159c-0.533,0.28-0.925,0.752-1.103,1.327l-1.095,3.527  c-0.179,0.575-0.123,1.186,0.157,1.719s0.752,0.926,1.327,1.104l0.71,0.22l-2.649,8.536l-0.709-0.22  c-0.578-0.179-1.187-0.122-1.719,0.158c-0.533,0.281-0.925,0.753-1.103,1.328l-1.095,3.527c-0.179,0.575-0.123,1.186,0.157,1.719  s0.752,0.926,1.327,1.104l7.775,2.413c0.221,0.068,0.446,0.103,0.67,0.103c0.361,0,0.72-0.088,1.049-0.261  c0.533-0.281,0.925-0.753,1.103-1.328l1.095-3.527c0.179-0.575,0.123-1.186-0.157-1.719c-0.281-0.533-0.753-0.926-1.327-1.104  l-0.71-0.22l2.649-8.537l0.71,0.221c0.573,0.178,1.184,0.123,1.718-0.159c0.533-0.28,0.925-0.752,1.103-1.327l1.095-3.527  c0.179-0.575,0.123-1.186-0.157-1.719C67.341,45.109,66.869,44.717,66.295,44.539z M65.869,46.769l-1.095,3.528  c-0.026,0.083-0.082,0.128-0.125,0.15c-0.042,0.021-0.109,0.043-0.193,0.018l-1.665-0.517c-0.53-0.163-1.088,0.131-1.251,0.659  l-3.241,10.446c-0.164,0.527,0.131,1.087,0.658,1.251l1.665,0.517c0.083,0.026,0.127,0.082,0.149,0.124  c0.022,0.043,0.044,0.111,0.018,0.195l-1.095,3.528c-0.026,0.083-0.082,0.128-0.125,0.149c-0.042,0.022-0.113,0.045-0.193,0.019  l-7.775-2.413c-0.083-0.026-0.127-0.082-0.149-0.124c-0.022-0.043-0.044-0.11-0.018-0.192c0-0.001,0-0.001,0-0.002l1.095-3.529  c0.034-0.109,0.135-0.18,0.244-0.18c0.024,0,0.05,0.004,0.074,0.012l1.664,0.517c0.255,0.078,0.526,0.053,0.763-0.07  c0.234-0.123,0.411-0.335,0.489-0.589l3.241-10.446c0.164-0.527-0.131-1.087-0.658-1.251l-1.665-0.517  c-0.083-0.026-0.127-0.082-0.149-0.124c-0.022-0.043-0.044-0.11-0.018-0.194l1.095-3.529c0.026-0.083,0.082-0.128,0.125-0.15  c0.041-0.021,0.11-0.046,0.192-0.018l7.776,2.413c0.083,0.026,0.127,0.082,0.149,0.124C65.874,46.616,65.896,46.685,65.869,46.769z"/><path d="M78.106,10H22.415c-2.113,0-3.832,1.719-3.832,3.832v9.321c0,1.989,1.528,3.609,3.469,3.795V89c0,0.553,0.447,1,1,1h54.419  c0.553,0,1-0.447,1-1V26.949c1.941-0.186,3.469-1.806,3.469-3.795v-9.32C81.939,11.72,80.22,10,78.106,10z M24.052,88V26.985h52.419  V88H24.052z M79.939,23.153c0,1.01-0.822,1.832-1.832,1.832H22.415c-1.01,0-1.832-0.822-1.832-1.832v-9.321  c0-1.01,0.822-1.832,1.832-1.832h55.691c1.011,0,1.833,0.822,1.833,1.833V23.153z"/><text x="0" y="115" fill="#000000" font-size="5px" font-weight="bold" font-family="'Helvetica Neue', Helvetica, Arial-Unicode, Arial, Sans-serif">Created by Made</text><text x="0" y="120" fill="#000000" font-size="5px" font-weight="bold" font-family="'Helvetica Neue', Helvetica, Arial-Unicode, Arial, Sans-serif">from the Noun Project</text></svg>